inDegrees=yes
name=ik_S56_A01_T01
DataType=double
version=3
OpenSimVersion=4.3-2021-08-27-4bc7ad9
endheader
time	pelvis_tilt	pelvis_list	pelvis_rotation	pelvis_tx	pelvis_ty	pelvis_tz	hip_flexion_r	hip_adduction_r	hip_rotation_r	knee_angle_r	knee_angle_r_beta	ankle_angle_r	subtalar_angle_r	mtp_angle_r	hip_flexion_l	hip_adduction_l	hip_rotation_l	knee_angle_l	knee_angle_l_beta	ankle_angle_l	subtalar_angle_l	mtp_angle_l	lumbar_extension	lumbar_bending	lumbar_rotation	arm_flex_r	arm_add_r	arm_rot_r	elbow_flex_r	pro_sup_r	wrist_flex_r	wrist_dev_r	arm_flex_l	arm_add_l	arm_rot_l	elbow_flex_l	pro_sup_l	wrist_flex_l	wrist_dev_l
27.03999999999951	2.607709640452291	-0.8506717763172532	-83.70954265083591	0	0.9399999999999999	0	17.05574029755462	-4.005192143707379	0.03617402948981877	56.72157567306844	0.989978252414163	0	0	0	3.944043135706179	7.025538524028937	-5.53145838253814	12.42373350464509	0.216835055046391	0	0	0	0	0	0	43.91352694025758	-43.91352694025758	4.992284660791185	84.89089652375564	85.00771561318281	0	0	43.91352694025758	-43.91352694025758	4.992284660791185	84.89089652375564	85.00771561318166	0	0
27.05999999999951	2.145921930324643	-1.08551601936693	-83.3925996310369	0	0.9399999999999999	0	17.8177773466778	-3.384134777722204	1.722975064555948	51.36219562219085	0.8964394246606479	0	0	0	2.664579345990336	6.596998426622426	-5.105621904824876	11.61227178032862	0.2026723762031581	0	0	0	0	0	0	43.91753709195171	-43.91753709195171	4.992333916715586	84.89159306909295	85.00766635726012	0	0	43.91753709195171	-43.91753709195171	4.992333916715586	84.89159306909295	85.00766635725896	0	0
27.07999999999951	1.74677668513971	-1.118039808037429	-82.98364063927085	0	0.9399999999999999	0	18.42666688498099	-3.095578660991035	2.099120641105011	46.15305914796611	0.8055228419996974	0	0	0	1.658502170837101	6.270426687628488	-3.798045416682887	12.04715741424554	0.2102625623846311	0	0	0	0	0	0	43.92673259203413	-43.92673259203413	4.992443545686708	84.89314337069051	85.0075567282926	0	0	43.92673259203413	-43.92673259203413	4.992443545686708	84.89314337069051	85.00755672829143	0	0
27.09999999999951	1.316653065867429	-0.7624468768206477	-82.21912122910942	0	0.9399999999999999	0	18.779403112565	-3.038225634038704	1.494407364227954	39.94456588746999	0.6971641930161622	0	0	0	0.949632119617939	5.872325848508834	-2.403863530477962	11.42341828175793	0.1993762608491891	0	0	0	0	0	0	43.92791541126338	-43.92791541126338	4.992460085308179	84.89337726340526	85.00754018867171	0	0	43.92791541126338	-43.92791541126338	4.992460085308179	84.89337726340526	85.00754018867055	0	0
27.11999999999951	1.26723692573427	-0.5600777064274771	-81.95284081208052	0	0.9399999999999999	0	19.42062732860848	-2.982672286667389	1.301375443131079	33.93639846083349	0.5923018894102803	0	0	0	0.09674317322426478	5.743928070124666	-1.569138329782271	11.10428405671122	0.1938063178663235	0	0	0	0	0	0	43.93165703121758	-43.93165703121758	4.992505191745402	84.89401512932382	85.00749508223602	0	0	43.93165703121758	-43.93165703121758	4.992505191745402	84.89401512932382	85.00749508223484	0	0
27.13999999999951	1.319575962585911	-0.3589720184080196	-81.84654320010577	0	0.9399999999999999	0	19.60406019038419	-3.193970610381919	1.370571990994655	27.48947430793654	0.4797818363158822	0	0	0	0.2902599363396461	5.754233716154953	-1.338735055991945	11.88789376095655	0.2074828872559835	0	0	0	0	0	0	43.93215964921689	-43.93215964921689	4.992512210610191	84.89411438560526	85.00748806337138	0	0	43.93215964921689	-43.93215964921689	4.992512210610191	84.89411438560526	85.0074880633702	0	0
27.15999999999951	1.41121210529295	-0.1052385565640778	-81.81057720895792	0	0.9399999999999999	0	20.00989857837405	-1.897884910618423	-2.198436853221547	21.80579626615454	0.3805829408634824	0	0	0	-0.529130904940543	5.853692308220174	-0.6539010207667812	11.54321299833211	0.2014670730799019	0	0	0	0	0	0	43.93387928311619	-43.93387928311619	4.992533635052665	84.89441735619009	85.00746663892963	0	0	43.93387928311619	-43.93387928311619	4.992533635052665	84.89441735619009	85.00746663892846	0	0
27.17999999999951	1.512885822013087	0.09292892544081398	-81.81900797437743	0	0.9399999999999999	0	20.20676585097211	-2.279168586632185	-1.954532131915967	12.81072258106511	0.2235892885991723	0	0	0	-0.3760170827412369	5.931164955642208	-0.7636786677897677	12.27920789248503	0.2143126072607377	0	0	0	0	0	0	43.93545339105451	-43.93545339105451	4.992553425437372	84.89469721898783	85.0074468485456	0	0	43.93545339105451	-43.93545339105451	4.992553425437372	84.89469721898783	85.00744684854445	0	0
27.19999999999951	1.636986704040938	0.2093993964609646	-81.82488014870567	0	0.9399999999999999	0	19.141656273942	-3.032058715465213	-3.468189769818422	-0.283188143484432	-0.004942565506413465	0	0	0	-2.522507292931605	5.988893842089263	0.5217534376369657	10.71331847006117	0.186982681117289	0	0	0	0	0	0	43.93365631110306	-43.93365631110306	4.992534515574946	84.89442980815528	85.00746575840736	0	0	43.93365631110306	-43.93365631110306	4.992534515574946	84.89442980815528	85.0074657584062	0	0
27.21999999999951	1.814292882348609	0.2275484188953077	-81.84838909796403	0	0.9399999999999999	0	18.74916278905834	-3.914122999377993	-2.575545279639254	-4.534043311318586	-0.07913398421053559	0	0	0	-4.822688681602396	5.974643388398728	1.498579606671979	10.145903764708	0.1770794262846426	0	0	0	0	0	0	43.93402999398864	-43.93402999398864	4.992539767290262	84.89450407454395	85.0074605066922	0	0	43.93402999398864	-43.93402999398864	4.992539767290262	84.89450407454395	85.00746050669102	0	0
27.23999999999951	2.059946936012262	0.2623948592060802	-81.83467813533338	0	0.9399999999999999	0	18.25817064032571	-4.531877014579473	-2.813849272356405	-6.804122095756684	-0.118754333278651	0	0	0	-6.004299802458942	6.122200451491358	1.840532149141085	10.07339597861901	0.175813926684058	0	0	0	0	0	0	43.93428128056241	-43.93428128056241	4.99254330978712	84.8945541702624	85.00745696419544	0	0	43.93428128056241	-43.93428128056241	4.99254330978712	84.8945541702624	85.00745696419428	0	0
27.25999999999951	2.359283265844506	0.2169889651048005	-81.749460556009	0	0.9399999999999999	0	18.09671669439597	-4.870978388993964	-3.021178052071919	-9.671705567601329	-0.1688031064381102	0	0	0	-6.121006315545343	6.39150715176722	1.939777699432979	10.63023827668478	0.1855326581996773	0	0	0	0	0	0	43.93449410635158	-43.93449410635158	4.992546295746269	84.89459639578071	85.00745397823643	0	0	43.93449410635158	-43.93449410635158	4.992546295746269	84.89459639578071	85.00745397823528	0	0
27.27999999999951	2.497919301988186	0.1742411245282456	-81.66158733545748	0	0.9399999999999999	0	18.37984222995039	-4.530580538935307	-3.225744457080129	-9.853115834639738	-0.1719693128948526	0	0	0	-6.215438929538655	6.456586808199689	1.963629299003995	11.98818168075436	0.2092332416564313	0	0	0	0	0	0	43.93498668338435	-43.93498668338435	4.992553194878958	84.89469395888726	85.00744707910398	0	0	43.93498668338435	-43.93498668338435	4.992553194878958	84.89469395888726	85.00744707910282	0	0
27.29999999999951	2.703965227506074	0.1078584945866164	-81.43859675508656	0	0.9399999999999999	0	18.65912219965149	-4.614384171649746	-2.972221978747261	-9.847512931131449	-0.1718715237809614	0	0	0	-9.617337775032484	6.421251284858085	2.804587219287675	10.60238710632314	0.1850465635763329	0	0	0	0	0	0	43.93695084922516	-43.93695084922516	4.992581991711377	84.8951011852469	85.00741828227257	0	0	43.93695084922516	-43.93695084922516	4.992581991711377	84.8951011852469	85.00741828227143	0	0
27.31999999999951	2.828733696806173	0.009502783420769663	-81.18624610710351	0	0.9399999999999999	0	18.79626239952031	-4.611434000082171	-2.313401580221044	-9.641031553731432	-0.1682677439012781	0	0	0	-10.50308120436961	6.380180512090067	3.380331881199775	11.74366499447856	0.2049656204048526	0	0	0	0	0	0	43.93728389655072	-43.93728389655072	4.992586649421547	84.89516705159392	85.00741362456257	0	0	43.93728389655072	-43.93728389655072	4.992586649421547	84.89516705159392	85.00741362456144	0	0
27.33999999999951	2.847023301020707	-0.1587247814182451	-80.98286449503567	0	0.9399999999999999	0	19.3000389879124	-4.436077648471294	-1.418301328791035	-8.679927393610944	-0.1514933118525608	0	0	0	-11.26634309332545	6.140736181014236	3.719665502237899	13.48042638478387	0.2352778249871945	0	0	0	0	0	0	43.93772467693113	-43.93772467693113	4.992592831610772	84.89525447614577	85.00740744237356	0	0	43.93772467693113	-43.93772467693113	4.992592831610772	84.89525447614577	85.00740744237241	0	0
27.35999999999951	2.876298594689911	-0.4512228250993275	-80.70857339471117	0	0.9399999999999999	0	19.71138145672489	-4.224086163297243	-0.6124866265950962	-8.34502350728404	-0.1456481363584315	0	0	0	-12.10156172782328	5.78295493885129	3.790785532879946	15.13773378599051	0.2642032958559211	0	0	0	0	0	0	43.93796149845939	-43.93796149845939	4.992596157979261	84.89530151551426	85.00740411600518	0	0	43.93796149845939	-43.93796149845939	4.992596157979261	84.89530151551426	85.00740411600404	0	0
27.37999999999951	3.001097930546419	-0.6263310990401737	-80.07854532329931	0	0.9399999999999999	0	19.38410000540996	-3.566681639645283	-0.4419824098967867	-4.829741952626819	-0.08429489909503797	0	0	0	-12.80740127801237	5.424073528273232	4.037152491261829	16.77275328349193	0.2927397694216241	0	0	0	0	0	0	43.9466290404849	-43.9466290404849	4.992699575441839	84.89676397800774	85.00730069854599	0	0	43.9466290404849	-43.9466290404849	4.992699575441839	84.89676397800774	85.00730069854491	0	0
